<?xml version="1.0" encoding="utf-8"?>
<!-- Generator: Adobe Illustrator 16.0.0, SVG Export Plug-In . SVG Version: 6.00 Build 0)  -->
<!DOCTYPE svg PUBLIC "-//W3C//DTD SVG 1.1//EN" "http://www.w3.org/Graphics/SVG/1.1/DTD/svg11.dtd">
<svg version="1.1" id="Layer_1" xmlns="http://www.w3.org/2000/svg" xmlns:xlink="http://www.w3.org/1999/xlink" x="0px" y="0px"
	 width="100px" height="100px" viewBox="0 0 100 100" enable-background="new 0 0 100 100" xml:space="preserve">
<g id="Light_Bulb">
	
		<path fill="none" stroke="#FFFFFF" stroke-width="3.4469" stroke-linecap="round" stroke-linejoin="round" stroke-miterlimit="10" d="
		M47.235,8.169c-4.307,0-19.507,0.865-22.476,14.633C21.476,38.018,35.965,47.79,35.965,57.512c0,0,0.266,9.073,3.811,13.037"/>
	
		<path fill="none" stroke="#FFFFFF" stroke-width="3.4469" stroke-linecap="round" stroke-linejoin="round" stroke-miterlimit="10" d="
		M47.329,8.169c4.307,0,19.507,0.865,22.478,14.633c3.282,15.216-11.208,24.988-11.208,34.709c0,0-0.266,9.073-3.809,13.037"/>
	
		<path fill="none" stroke="#FFFFFF" stroke-width="2.5852" stroke-linecap="round" stroke-linejoin="round" stroke-miterlimit="10" d="
		M47.447,69.858c0-6.397,2.587-37.86-6.675-40.084c-8.013-1.925-4.513,21.396,9.689,11.627c17.012-11.7-1.506-24.404-3.445,2.296"/>
	
		<path fill="none" stroke="#FFFFFF" stroke-width="2.5852" stroke-linecap="round" stroke-linejoin="round" stroke-miterlimit="10" d="
		M57.607,74.564c0,1.256-0.919,2.272-2.047,2.272h-16.58c-1.129,0-2.045-1.017-2.045-2.272v-1.195c0-1.255,0.916-2.271,2.045-2.271
		h16.58c1.128,0,2.047,1.017,2.047,2.271V74.564z"/>
	
		<path fill="none" stroke="#FFFFFF" stroke-width="2.5852" stroke-linecap="round" stroke-linejoin="round" stroke-miterlimit="10" d="
		M57.607,80.308c0,1.255-0.919,2.271-2.047,2.271h-16.58c-1.129,0-2.045-1.017-2.045-2.271v-1.195c0-1.254,0.916-2.273,2.045-2.273
		h16.58c1.128,0,2.047,1.02,2.047,2.273V80.308z"/>
	
		<path fill="none" stroke="#FFFFFF" stroke-width="2.5852" stroke-linecap="round" stroke-linejoin="round" stroke-miterlimit="10" d="
		M53.163,82.935c0,2.711-2.638,4.911-5.893,4.911c-3.255,0-5.892-2.2-5.892-4.911"/>
</g>
</svg>
